<svg xmlns="http://www.w3.org/2000/svg" xmlns:xlink="http://www.w3.org/1999/xlink" version="1.1" x="0px" y="0px" viewBox="0 0 512 640" style="enable-background:new 0 0 512 512;" xml:space="preserve"><g><path d="M256,79c-74.2,0-134.5,60.3-134.5,134.5c0,29.3,9.3,57.2,26.8,80.6l102.1,136.1c1.3,1.8,3.4,2.8,5.6,2.8s4.3-1,5.6-2.8   l102.1-136.1c17.5-23.4,26.8-51.3,26.8-80.6C390.5,139.3,330.2,79,256,79z M352.5,285.7L256,414.3l-96.5-128.6   c-15.7-21-24-46-24-72.2C135.5,147.1,189.6,93,256,93s120.5,54.1,120.5,120.5C376.5,239.8,368.2,264.8,352.5,285.7z"/><path d="M256,144.2c-38.2,0-69.3,31.1-69.3,69.3s31.1,69.3,69.3,69.3s69.3-31.1,69.3-69.3C325.3,175.3,294.2,144.2,256,144.2z    M256,268.7c-30.5,0-55.3-24.8-55.3-55.3s24.8-55.3,55.3-55.3s55.3,24.8,55.3,55.3S286.5,268.7,256,268.7z"/></g></svg>